<svg version="1.1" id="Layer_1" xmlns="http://www.w3.org/2000/svg" xmlns:xlink="http://www.w3.org/1999/xlink" x="0px" y="0px"
	 width="100%" viewBox="0 0 383 144" enable-background="new 0 0 383 144" xml:space="preserve">
<path fill="#000000" opacity="1.000000" stroke="none" 
	d="
M81.758469,1.303901 
	C181.275208,1.000000 280.550446,1.029651 379.825470,0.887079 
	C383.631836,0.881612 384.092590,1.913844 384.083160,5.320885 
	C383.958496,50.460777 383.948975,95.601295 384.097656,140.741043 
	C384.109436,144.316986 383.398804,145.104675 379.763489,145.100067 
	C280.821533,144.974777 181.879410,145.000000 82.468658,145.000000 
	C80.114578,142.729095 81.387978,140.944504 82.988564,139.341049 
	C88.027245,134.293381 93.823288,130.024689 97.887466,123.968109 
	C99.458580,121.626778 102.383194,122.107117 104.850540,122.772675 
	C112.187653,124.751839 119.669876,124.772812 127.174942,124.611069 
	C133.471649,124.475365 134.440613,123.509415 134.616119,117.379906 
	C134.807877,110.682602 134.337204,104.033119 132.421036,97.609711 
	C131.345200,94.003319 132.136566,91.621063 135.271225,89.543182 
	C140.271667,86.228546 144.933105,82.454178 149.074646,78.071960 
	C153.222778,73.682755 153.264832,72.361137 149.225159,68.091995 
	C145.432571,64.083992 141.321320,60.413143 136.600357,57.566784 
	C132.663239,55.193024 131.021637,52.447910 132.467773,47.673779 
	C134.405319,41.277340 134.937531,34.607830 134.606216,27.896931 
	C134.347366,22.653482 133.313126,21.531212 127.950783,21.419083 
	C120.458290,21.262413 112.930511,20.968119 105.624504,23.122267 
	C101.148010,24.442146 97.880638,23.251917 95.498856,19.165991 
	C92.661476,14.298467 87.623695,11.568084 83.861778,7.590103 
	C82.308876,5.948008 80.183678,4.425931 81.758469,1.303901 
z"/>
<path fill="#F63E7B" opacity="1.000000" stroke="none" 
	d="
M81.562500,1.000000 
	C82.349258,4.789441 85.678795,6.469591 88.072350,8.285935 
	C92.358116,11.538163 96.034660,15.213147 98.805428,19.699413 
	C100.032837,21.686745 100.747177,21.842390 102.949684,21.164906 
	C112.562645,18.207985 122.528366,19.044601 132.401596,19.000252 
	C135.475876,18.986444 136.975403,20.476845 137.003159,23.558847 
	C137.085983,32.751060 137.506134,42.020954 133.974792,50.748589 
	C132.955338,53.268162 134.874313,53.673737 135.848587,54.205917 
	C142.763962,57.983353 147.987518,63.706264 153.606720,69.008675 
	C156.495056,71.734177 156.834488,73.882408 153.790955,76.814423 
	C147.864273,82.523964 142.164886,88.464943 134.905823,92.553940 
	C133.887131,93.127762 133.289093,93.435600 133.923752,94.943756 
	C137.670990,103.848625 136.998871,113.296028 136.972015,122.642059 
	C136.962158,126.067528 134.807327,127.049164 131.692581,127.023735 
	C121.819611,126.943100 111.878075,127.679573 102.270943,124.634781 
	C101.203590,124.296501 100.244598,123.829597 99.752663,124.854187 
	C95.665413,133.367065 86.784821,137.362656 81.660759,144.779358 
	C79.958336,145.000000 77.916664,145.000000 75.437500,145.000000 
	C68.784790,140.825256 62.862576,136.312149 58.192932,130.364700 
	C56.337494,128.001556 53.962883,127.317749 51.092003,128.026489 
	C42.899254,130.049072 34.557472,129.406937 26.263414,129.253616 
	C20.481600,129.146744 18.796988,127.504662 18.760986,121.681458 
	C18.711805,113.726517 17.803921,105.720039 19.570295,97.825562 
	C20.117214,95.381218 19.236919,93.673225 17.222116,92.305107 
	C13.498895,89.776924 10.563089,86.303528 6.931873,83.643433 
	C4.473458,81.842476 2.955927,79.219681 1.258038,76.292320 
	C1.000000,74.285645 1.000000,72.571281 1.000000,70.428467 
	C4.489111,63.030735 10.899828,58.890202 16.652721,54.194736 
	C19.211672,52.106140 19.956165,50.224628 19.370623,46.975170 
	C17.886971,38.741634 18.522327,30.390228 18.939795,22.092581 
	C19.136549,18.181883 21.960741,16.783098 25.522850,16.757206 
	C33.826679,16.696842 42.186420,15.846340 50.375561,17.870565 
	C54.086807,18.787928 56.624817,17.797773 59.011845,14.755285 
	C63.241127,9.364658 68.594238,5.133033 74.707352,1.258210 
	C77.041664,1.000000 79.083336,1.000000 81.562500,1.000000 
z"/>
<path fill="#000000" opacity="1.000000" stroke="none" 
	d="
M1.000000,76.468658 
	C2.434926,74.858276 2.810385,76.458870 3.486365,77.034431 
	C9.583282,82.225677 14.636267,88.726883 22.230392,92.031815 
	C24.735878,93.122185 23.263290,95.064484 22.827536,96.156815 
	C19.168898,105.328171 21.738667,114.844658 21.050373,124.163460 
	C20.865652,126.664391 22.732740,127.041924 24.769981,127.005638 
	C34.307625,126.835747 43.944500,127.916992 53.263622,124.958275 
	C55.688854,124.188286 57.011059,124.205521 58.585800,126.870384 
	C62.833363,134.058304 70.763504,137.881882 75.339149,144.779755 
	C51.405964,145.000000 27.811539,144.937195 4.218401,145.082886 
	C1.404213,145.100266 0.905804,144.457916 0.923177,141.737350 
	C1.061112,120.138054 1.000000,98.537491 1.000000,76.468658 
z"/>
<path fill="#000000" opacity="1.000000" stroke="none" 
	d="
M74.531342,1.000000 
	C73.987793,5.371883 70.150330,7.569456 67.150032,10.025533 
	C63.906738,12.680530 61.065845,15.451723 59.037781,19.023823 
	C57.709972,21.362535 56.375713,22.003359 53.595100,21.113300 
	C44.162064,18.093836 34.353817,19.142584 24.659800,18.974913 
	C21.769009,18.924915 20.813519,20.268456 20.991282,22.941198 
	C21.610592,32.252686 19.397696,41.769909 23.025927,50.861237 
	C23.458847,51.946011 23.577778,52.619141 22.233566,53.413029 
	C14.389434,58.045765 8.188876,64.698151 1.220623,70.339020 
	C1.000000,48.067516 1.069722,26.134539 0.914679,4.203148 
	C0.894549,1.355666 1.590012,0.910902 4.277918,0.925793 
	C27.538929,1.054661 50.800957,1.000000 74.531342,1.000000 
z"/>
<path fill="#000000" opacity="1.000000" stroke="none" 
	d="
M53.001205,36.234150 
	C52.726601,40.659325 53.232262,44.528702 54.655773,48.247982 
	C55.615170,50.754654 54.199558,51.463570 52.297684,50.905357 
	C45.097210,48.791969 37.938736,48.397079 30.732698,50.714531 
	C29.258682,51.188568 29.309811,50.193874 28.935287,49.234245 
	C26.134445,42.057720 25.810131,34.580299 25.996042,27.017094 
	C26.032675,25.526848 26.684784,24.918646 28.108437,25.012344 
	C35.156815,25.476229 42.188450,24.567635 49.307198,25.772776 
	C55.025200,26.740782 54.884102,29.251402 53.315987,33.343033 
	C53.031033,34.086544 53.097462,34.964725 53.001205,36.234150 
z"/>
<path fill="#000000" opacity="1.000000" stroke="none" 
	d="
M130.988983,27.236729 
	C130.979218,34.426918 131.423965,41.173645 129.008957,47.664650 
	C128.229294,49.760246 127.893333,51.068073 124.777321,50.191212 
	C118.265701,48.358818 111.580391,48.746265 105.057159,50.887032 
	C104.212219,51.164318 103.157135,50.801273 102.039322,50.723732 
	C104.132172,43.825871 105.017082,37.123241 103.093971,30.291742 
	C102.485870,28.131599 103.484779,26.784975 105.501122,26.250454 
	C113.619194,24.098398 121.898933,25.180368 130.119995,25.189936 
	C130.407623,25.190269 130.694061,26.213165 130.988983,27.236729 
z"/>
<path fill="#000000" opacity="1.000000" stroke="none" 
	d="
M53.217400,113.452042 
	C54.902782,117.330696 54.011585,119.156158 50.090446,120.081047 
	C42.871895,121.783707 35.613808,120.579010 28.391462,121.000214 
	C26.768505,121.094872 26.001600,120.551376 25.980350,118.766068 
	C25.892389,111.375900 26.096451,104.062248 28.886271,97.035896 
	C29.451633,95.611992 29.264280,95.055466 31.334803,95.579033 
	C38.027424,97.271347 44.814800,97.459694 51.556297,95.228439 
	C53.409386,94.615120 55.902447,94.384865 54.530704,97.945885 
	C52.650333,102.827301 52.882133,107.938782 53.217400,113.452042 
z"/>
<path fill="#000000" opacity="1.000000" stroke="none" 
	d="
M129.813293,100.584808 
	C131.277710,106.506783 130.981415,112.131317 131.000076,117.736679 
	C131.005646,119.411270 131.300293,121.151604 128.624557,121.016823 
	C121.211037,120.643410 113.737549,121.800812 106.372810,119.999420 
	C103.659027,119.335625 102.236931,117.861473 103.089767,115.131760 
	C104.878616,109.406128 104.391052,103.664528 102.805939,98.142952 
	C101.920418,95.058357 102.706917,94.518837 105.231590,95.120384 
	C111.130585,96.525909 116.947311,97.943901 123.055801,96.053284 
	C126.594040,94.958176 129.152313,96.112503 129.813293,100.584808 
z"/>
<path fill="#000000" opacity="1.000000" stroke="none" 
	d="
M34.795483,66.296646 
	C38.301983,68.638626 41.560532,70.717812 45.672268,73.341393 
	C37.799965,76.029137 32.658287,81.695282 27.358709,87.150528 
	C25.510057,89.053482 24.237137,87.071922 23.086353,86.446747 
	C17.530115,83.428284 14.319070,77.593796 8.904882,74.322487 
	C7.560004,73.509895 7.846100,72.223930 9.051031,71.528130 
	C14.628030,68.307610 17.923555,62.423729 23.796541,59.366760 
	C26.269075,58.079765 27.087168,58.454102 28.569485,60.041824 
	C30.493813,62.102982 32.548790,64.042168 34.795483,66.296646 
z"/>
<path fill="#000000" opacity="1.000000" stroke="none" 
	d="
M139.232605,63.731064 
	C142.083282,66.252914 144.644150,68.562309 147.294113,70.764481 
	C149.048676,72.222557 149.424652,73.463036 147.440598,75.098045 
	C142.889359,78.848595 138.519867,82.825409 133.874405,86.451302 
	C132.903015,87.209503 131.142563,89.218338 129.673370,87.088860 
	C125.207237,80.615540 118.824783,76.609825 111.168678,73.107460 
	C115.702415,70.523979 119.791534,68.904984 123.060410,65.992783 
	C124.039703,65.120346 125.134544,64.365776 126.043907,63.428604 
	C131.927414,57.365154 132.330063,57.354519 139.232605,63.731064 
z"/>
<path fill="#000000" opacity="1.000000" stroke="none" 
	d="
M92.225639,125.279831 
	C90.160286,127.356247 88.377571,129.207291 86.521484,130.981613 
	C83.809570,133.574066 80.894157,138.277313 78.342697,138.099655 
	C75.443130,137.897751 72.832268,133.328094 70.126389,130.626572 
	C67.248032,127.752861 64.103195,125.095497 62.208614,121.038109 
	C69.551506,117.012161 74.927727,111.058723 78.412399,103.287216 
	C82.077904,109.727142 86.373573,115.337379 92.598938,119.242340 
	C95.707199,121.192055 94.451668,123.134422 92.225639,125.279831 
z"/>
<path fill="#000000" opacity="1.000000" stroke="none" 
	d="
M82.271591,10.771517 
	C85.984489,14.479921 89.494522,17.897318 92.886932,21.427729 
	C94.596466,23.206799 95.340874,24.334051 92.366081,26.517569 
	C86.647682,30.714916 81.692650,35.956436 78.483963,42.841820 
	C75.081039,35.575706 70.442009,29.811888 63.692101,25.946608 
	C62.157673,25.067930 62.347309,24.483583 63.335571,23.023581 
	C67.483780,16.895245 73.604591,12.712277 78.795959,6.382487 
	C80.008286,7.940959 81.014198,9.234086 82.271591,10.771517 
z"/>
<path fill="#000000" opacity="1.000000" stroke="none" 
	d="
M73.781326,81.716164 
	C74.695122,81.110428 75.492126,79.423294 75.960907,81.520905 
	C78.308853,92.027084 71.086639,109.242996 62.097378,114.309669 
	C59.023464,116.042244 59.244907,112.755241 59.125969,111.573021 
	C58.368767,104.046669 60.009022,97.179436 64.486496,90.813095 
	C67.019463,87.211586 70.580978,84.980423 73.781326,81.716164 
z"/>
<path fill="#000000" opacity="1.000000" stroke="none" 
	d="
M60.169266,31.623438 
	C68.191071,35.608734 72.935471,42.361897 74.922882,50.951710 
	C75.995750,55.588737 76.480698,60.385048 75.845688,65.178116 
	C63.279594,58.540520 55.900810,43.099903 60.169266,31.623438 
z"/>
<path fill="#000000" opacity="1.000000" stroke="none" 
	d="
M51.470879,56.210369 
	C59.554485,58.514206 64.801750,64.080788 70.207748,69.699585 
	C56.809177,71.222664 44.592327,69.253998 35.114342,58.569263 
	C34.457546,57.828838 32.844528,57.388218 33.736816,55.859871 
	C34.338024,54.830101 35.429928,54.993679 36.410885,55.005413 
	C41.321991,55.064159 46.270683,54.608803 51.470879,56.210369 
z"/>
<path fill="#000000" opacity="1.000000" stroke="none" 
	d="
M93.298569,82.794006 
	C91.104134,80.720512 89.172714,78.892708 87.106789,76.937614 
	C99.372246,73.276375 115.631912,78.521538 122.671326,88.175995 
	C123.117355,88.787720 124.023300,89.225098 123.226212,90.225029 
	C122.470367,91.173203 121.456955,90.932983 120.489212,91.000999 
	C110.520729,91.701599 101.304405,89.864288 93.298569,82.794006 
z"/>
<path fill="#000000" opacity="1.000000" stroke="none" 
	d="
M82.574608,49.904976 
	C83.921577,42.228970 88.843842,37.383476 93.886383,32.627857 
	C94.673935,31.885117 95.344849,30.544168 96.748856,31.333225 
	C97.864731,31.960352 97.929115,33.132996 98.030052,34.354389 
	C99.124657,47.598721 93.431534,57.308510 82.292305,64.909149 
	C82.292305,59.662178 82.292305,54.947506 82.574608,49.904976 
z"/>
<path fill="#000000" opacity="1.000000" stroke="none" 
	d="
M97.815956,102.615898 
	C97.966156,106.031410 97.944115,109.028595 98.009888,112.023849 
	C98.038475,113.325592 97.603584,114.336327 96.405090,114.787727 
	C95.209427,115.238068 94.644760,114.099098 93.967812,113.457115 
	C84.907829,104.864944 80.815178,99.863487 82.175636,81.105049 
	C90.569016,86.111069 95.269615,93.280693 97.815956,102.615898 
z"/>
<path fill="#000000" opacity="1.000000" stroke="none" 
	d="
M109.986382,67.046944 
	C102.662903,71.284393 95.092102,69.799973 87.031303,69.909592 
	C96.068665,58.703114 107.060730,53.741299 120.801018,54.979271 
	C121.820503,55.071129 122.913788,55.009163 123.390572,56.023026 
	C123.952255,57.217392 122.693954,57.697132 122.100197,58.385258 
	C118.853142,62.148426 114.974312,65.067123 109.986382,67.046944 
z"/>
<path fill="#000000" opacity="1.000000" stroke="none" 
	d="
M57.335724,76.000854 
	C61.605595,76.000412 65.418243,76.000412 69.351830,76.000412 
	C63.002548,86.768486 47.025612,93.736526 35.343147,90.982773 
	C32.534271,90.320679 33.414936,89.159210 34.789131,87.674438 
	C40.794792,81.185509 48.297440,77.586983 57.335724,76.000854 
z"/>
</svg>