<?xml version="1.0" standalone="no"?>
<!DOCTYPE svg PUBLIC "-//W3C//DTD SVG 20010904//EN"
 "http://www.w3.org/TR/2001/REC-SVG-20010904/DTD/svg10.dtd">
<svg version="1.0" xmlns="http://www.w3.org/2000/svg"
 width="383.000000pt" height="144.000000pt" viewBox="0 0 383.000000 144.000000"
 preserveAspectRatio="xMidYMid meet">

<g transform="translate(0.000000,144.000000) scale(0.100000,-0.100000)"
fill="#000000" stroke="none">
<path d="M697 1373 c-70 -66 -122 -124 -129 -144 -2 -6 -27 -4 -65 6 -43 11
-96 15 -180 13 l-118 -3 1 -120 c0 -81 6 -134 16 -162 l16 -43 -47 -29 c-25
-16 -80 -61 -121 -100 l-75 -71 80 -75 c44 -42 99 -87 121 -100 l42 -25 -16
-43 c-10 -28 -16 -81 -16 -162 l-1 -120 124 -3 c91 -2 138 2 180 14 36 10 57
12 59 5 7 -20 58 -78 129 -144 60 -55 76 -66 90 -58 24 14 163 150 188 183
l20 27 55 -14 c38 -11 92 -15 175 -13 l120 3 -1 125 c0 92 -5 135 -16 162
l-17 37 42 25 c23 13 78 59 122 100 l80 76 -80 76 c-44 42 -99 87 -122 100
l-42 25 17 37 c11 27 16 70 16 162 l1 125 -118 3 c-84 2 -137 -2 -180 -13 -35
-9 -63 -12 -65 -7 -11 33 -187 212 -208 212 -3 0 -37 -30 -77 -67z m233 -140
c20 -29 22 -37 10 -41 -27 -9 -122 -106 -141 -144 -11 -21 -21 -38 -24 -38 -3
0 -13 17 -24 38 -20 40 -77 103 -117 128 -13 9 -24 23 -24 31 0 9 37 53 81 99
l82 83 66 -60 c36 -33 77 -76 91 -96z m-435 -37 l40 -12 -3 -84 c-3 -59 1 -99
12 -130 8 -24 14 -45 13 -46 -1 -1 -27 4 -57 12 -61 16 -127 18 -182 5 -36 -8
-37 -8 -52 30 -11 27 -16 72 -16 139 l0 100 103 -1 c56 0 120 -6 142 -13z
m803 -98 c-2 -62 -9 -125 -15 -139 -11 -25 -12 -25 -72 -15 -59 9 -155 1 -203
-19 -17 -7 -17 -4 -2 36 11 31 15 70 12 134 l-3 89 40 12 c22 7 87 13 143 13
l104 1 -4 -112z m-635 -8 c69 -74 89 -129 85 -234 l-3 -77 -57 51 c-59 53
-102 124 -114 193 -9 50 4 127 21 127 7 0 38 -27 68 -60z m313 24 c18 -98 -23
-200 -115 -287 l-56 -52 -3 83 c-2 72 1 91 23 140 26 57 108 152 132 152 7 0
15 -16 19 -36z m-477 -220 c29 -8 65 -23 80 -32 34 -21 131 -108 131 -117 0
-4 -44 -5 -97 -3 -79 3 -109 9 -155 30 -53 24 -148 101 -148 119 0 22 119 24
189 3z m737 3 c14 -14 -78 -95 -140 -123 -50 -23 -79 -29 -158 -32 -54 -2 -98
-2 -98 2 0 9 88 88 123 111 58 37 128 56 199 52 37 -1 70 -6 74 -10z m-926
-71 c28 -29 73 -64 100 -77 28 -13 50 -26 50 -29 0 -3 -25 -18 -55 -33 -30
-16 -75 -51 -100 -78 l-47 -50 -41 25 c-23 14 -69 51 -102 81 l-60 55 65 60
c51 47 117 95 137 100 1 0 25 -24 53 -54z m1028 30 c20 -14 64 -50 97 -81 l60
-55 -60 -56 c-33 -31 -77 -67 -98 -81 l-38 -26 -55 56 c-31 31 -78 67 -105 79
-26 13 -48 25 -49 28 0 3 22 16 49 29 27 13 73 47 103 77 29 30 54 54 56 54 1
0 19 -11 40 -24z m-630 -165 c-2 -6 -32 -35 -68 -66 -79 -68 -167 -100 -260
-93 -33 2 -63 7 -67 11 -10 10 55 74 105 104 23 14 62 31 85 38 49 16 210 20
205 6z m388 -25 c62 -28 154 -109 140 -123 -4 -5 -45 -8 -90 -8 -72 0 -89 4
-146 32 -37 18 -86 54 -115 83 l-50 52 100 -4 c83 -3 111 -9 161 -32z m-362
-208 c-17 -51 -114 -168 -139 -168 -9 0 -16 18 -21 45 -14 96 21 182 108 268
l63 62 3 -79 c2 -53 -2 -94 -14 -128z m148 134 c57 -61 87 -119 95 -182 6 -55
-3 -120 -18 -120 -20 0 -102 87 -127 135 -21 40 -27 68 -30 144 -4 89 -4 93
15 83 10 -6 40 -33 65 -60z m-327 -89 c-21 -52 -26 -86 -23 -163 l3 -84 -40
-12 c-22 -7 -86 -13 -142 -13 l-103 -1 0 100 c0 67 5 112 16 139 15 38 16 38
52 30 52 -12 129 -10 182 5 62 18 63 18 55 -1z m532 -6 c43 -8 81 -8 124 -1
60 10 61 10 72 -15 6 -14 13 -77 15 -138 l4 -113 -104 1 c-56 0 -121 6 -143
13 l-40 12 3 89 c3 64 -1 103 -12 134 -15 40 -15 43 2 36 9 -4 45 -12 79 -18z
m-284 -110 c25 -43 111 -130 137 -139 20 -6 -23 -65 -102 -137 l-65 -60 -82
83 c-44 46 -81 90 -81 99 0 8 11 22 24 31 40 25 97 88 117 129 11 20 21 37 23
37 2 0 15 -19 29 -43z"/>
<path d="M2728 1339 c-35 -20 -15 -69 28 -69 37 0 54 11 54 34 0 41 -42 59
-82 35z"/>
<path d="M1820 1307 c0 -7 10 -17 23 -22 22 -10 22 -13 22 -200 0 -166 -2
-194 -18 -218 -9 -15 -26 -27 -37 -27 -13 0 -20 -7 -20 -20 0 -12 7 -20 18
-20 35 0 93 22 119 45 l28 23 5 204 c5 199 5 203 28 213 12 5 22 15 22 22 0
10 -25 13 -95 13 -70 0 -95 -3 -95 -13z"/>
<path d="M3274 1298 c3 -13 10 -49 16 -80 9 -45 15 -58 30 -58 14 0 20 13 29
63 17 98 17 97 -34 97 -42 0 -45 -2 -41 -22z"/>
<path d="M2130 1213 c-94 -48 -93 -223 0 -270 30 -15 109 -17 144 -3 30 11 52
48 38 62 -7 7 -18 3 -33 -11 -24 -23 -59 -27 -89 -11 -16 8 -40 58 -40 81 0 5
41 9 91 9 l92 0 -6 46 c-7 65 -46 103 -112 110 -37 4 -59 0 -85 -13z m93 -30
c3 -5 8 -23 12 -40 l7 -33 -46 0 c-45 0 -46 1 -40 28 4 15 11 33 17 40 10 13
43 16 50 5z"/>
<path d="M2532 1205 c-29 -24 -30 -24 -35 -5 -4 17 -14 20 -61 20 -41 0 -56
-4 -56 -14 0 -8 7 -16 15 -20 12 -4 15 -26 15 -112 0 -97 -2 -106 -20 -111
-11 -3 -20 -12 -20 -19 0 -11 21 -14 95 -14 74 0 95 3 95 14 0 8 -11 17 -25
20 -24 6 -25 9 -25 87 0 44 5 89 10 100 14 26 50 25 50 -1 0 -26 40 -27 63 -2
22 24 21 38 -3 62 -27 27 -62 25 -98 -5z"/>
<path d="M3070 1223 c-8 -3 -22 -12 -31 -20 -14 -12 -17 -12 -22 2 -9 21 -127
22 -127 1 0 -7 9 -16 20 -19 18 -5 20 -14 20 -106 0 -90 -2 -102 -20 -113 -43
-27 -23 -38 65 -38 88 0 108 11 65 38 -17 10 -20 23 -20 90 0 80 16 122 45
122 26 0 35 -38 35 -144 l0 -106 65 0 c69 0 84 13 45 38 -18 11 -20 23 -20
111 0 79 -3 103 -17 120 -18 22 -75 35 -103 24z"/>
<path d="M3500 1219 c-43 -17 -60 -40 -60 -80 0 -47 23 -71 92 -96 27 -9 53
-23 59 -29 14 -18 0 -43 -29 -51 -31 -7 -53 5 -70 40 -14 29 -31 34 -50 15
-39 -39 15 -88 95 -88 69 0 108 20 122 63 19 57 2 84 -79 120 -74 33 -89 56
-49 77 16 9 26 8 45 -5 13 -8 24 -22 24 -30 0 -20 25 -19 45 1 14 14 14 19 2
37 -22 34 -95 46 -147 26z"/>
<path d="M2670 1210 c0 -6 11 -15 25 -20 24 -9 25 -12 25 -110 0 -89 -2 -101
-20 -112 -43 -27 -23 -38 65 -38 88 0 108 11 65 38 -18 11 -20 23 -20 132 l0
120 -70 0 c-41 0 -70 -4 -70 -10z"/>
<path d="M2730 732 c0 -4 10 -12 23 -17 21 -10 22 -15 25 -178 l2 -167 -25
-12 c-43 -19 -28 -28 50 -28 78 0 93 9 50 28 l-25 12 0 185 0 185 -50 0 c-27
0 -50 -3 -50 -8z"/>
<path d="M1820 712 c0 -5 11 -14 25 -20 l25 -12 0 -155 0 -155 -25 -12 c-44
-20 -27 -28 60 -28 85 0 112 12 55 25 -29 6 -30 8 -30 66 0 55 2 59 23 59 43
0 100 22 123 47 18 20 24 37 24 73 0 58 -26 95 -78 110 -44 12 -202 14 -202 2z
m206 -43 c13 -15 19 -36 19 -69 0 -62 -23 -90 -77 -90 l-38 0 0 90 0 90 38 0
c27 0 45 -7 58 -21z"/>
<path d="M2230 617 c-38 -13 -54 -52 -28 -68 20 -13 23 -11 35 21 9 24 17 30
40 30 39 0 53 -17 53 -62 0 -36 -2 -38 -32 -38 -51 0 -107 -19 -118 -40 -17
-32 -12 -88 10 -110 30 -30 90 -27 121 6 l24 26 5 -24 c5 -18 14 -24 43 -26
40 -3 49 11 17 28 -18 10 -20 21 -20 111 0 55 -5 109 -10 119 -6 11 -27 24
-48 30 -45 12 -48 12 -92 -3z m100 -177 c0 -46 -27 -80 -62 -80 -38 0 -50 14
-46 56 3 43 30 64 81 64 25 0 27 -3 27 -40z"/>
<path d="M2620 623 c-8 -3 -25 -17 -37 -31 l-23 -27 0 28 c0 25 -3 27 -45 27
-49 0 -58 -10 -22 -25 21 -9 22 -17 25 -118 3 -106 2 -107 -23 -119 -43 -19
-28 -28 49 -28 78 0 108 14 56 25 l-30 7 0 84 c0 96 17 144 51 144 12 0 23 -8
26 -20 6 -23 26 -26 43 -5 16 19 4 52 -23 59 -25 6 -26 6 -47 -1z"/>
<path d="M3011 617 c-50 -18 -74 -56 -79 -126 -7 -101 38 -161 123 -161 80 0
125 53 125 145 0 111 -76 175 -169 142z m79 -27 c60 -32 50 -218 -13 -234 -61
-15 -97 30 -97 120 0 97 48 147 110 114z"/>
<path d="M3734 620 c-12 -4 -24 -15 -27 -24 -9 -23 -27 -20 -27 4 0 17 -7 20
-40 20 -42 0 -54 -14 -20 -25 18 -6 20 -15 20 -115 0 -99 -2 -110 -20 -120
-38 -20 -20 -30 55 -30 80 0 94 8 45 27 -30 11 -30 12 -29 85 1 91 17 142 48
146 16 3 24 -2 28 -17 6 -23 23 -27 41 -9 20 20 14 48 -14 58 -29 12 -32 12
-60 0z"/>
<path d="M3240 611 c0 -5 9 -13 20 -16 18 -6 20 -15 20 -94 0 -97 12 -146 40
-161 31 -16 86 -11 113 10 l26 20 6 -20 c5 -16 15 -20 46 -20 41 0 54 18 19
27 -19 5 -20 14 -20 134 l0 129 -50 0 c-54 0 -64 -9 -27 -25 20 -9 22 -16 22
-101 0 -104 -15 -134 -66 -134 -47 0 -59 30 -59 152 l0 108 -45 0 c-25 0 -45
-4 -45 -9z"/>
</g>
</svg>
